<svg xmlns="http://www.w3.org/2000/svg" width="undefined" height="undefined" viewBox="0 0 12 12"><path fill="currentColor" d="M2.715 1.998A1 1 0 013.58 1.5h1.164a1 1 0 01.865.498l.58 1a1 1 0 010 1.004l-.58 1a1 1 0 01-.865.498H3.58a1 1 0 01-.865-.498l-.58-1a1 1 0 010-1.004l.58-1zm4.33 2.5A1 1 0 017.91 4h1.164a1 1 0 01.865.498l.58 1a1 1 0 010 1.004l-.58 1A1 1 0 019.074 8H7.91a1 1 0 01-.865-.498l-.58-1a1 1 0 010-1.004l.58-1zM3.58 6.5a1 1 0 00-.865.498l-.58 1a1 1 0 000 1.004l.58 1a1 1 0 00.865.498h1.164a1 1 0 00.865-.498l.58-1a1 1 0 000-1.004l-.58-1a1 1 0 00-.865-.498H3.58z"/></svg>