<svg xmlns="http://www.w3.org/2000/svg" width="undefined" height="undefined" viewBox="0 0 17 16"><g fill="currentColor" fill-rule="evenodd"><path d="M16.794 8.77l-3.81-3.906V2.017l-.968.022v1.728L9.502 1.245a.711.711 0 00-1.003 0L1.206 8.771a.713.713 0 000 1.002.71.71 0 001.003-.001L9 2.982l6.793 6.79a.704.704 0 001.001.001.715.715 0 000-1.003z"/><path d="M4.043 9.532v5.69c0 .394.218.786.567.786h2.277l.064-3.993h4.074l-.002 3.993h2.303c.349 0 .632-.391.632-.786V9.531L9 4.625 4.043 9.532z"/></g></svg>