<svg xmlns="http://www.w3.org/2000/svg" width="undefined" height="undefined" viewBox="0 0 24 24"><g fill="none"><path d="M24 0v24H0V0h24zM12.594 23.258l-.012.002-.071.035-.02.004-.014-.004-.071-.036c-.01-.003-.019 0-.024.006l-.004.01-.017.428.005.02.01.013.104.074.015.004.012-.004.104-.074.012-.016.004-.017-.017-.427c-.002-.01-.009-.017-.016-.018zm.264-.113l-.014.002-.184.093-.01.01-.003.011.018.43.005.012.008.008.201.092c.012.004.023 0 .029-.008l.004-.014-.034-.614c-.003-.012-.01-.02-.02-.022zm-.715.002a.023.023 0 00-.027.006l-.006.014-.034.614c0 .012.007.02.017.024l.015-.002.201-.093.01-.008.003-.011.018-.43-.003-.012-.01-.01-.184-.092z"/><path fill="currentColor" d="M18 2a2 2 0 011.995 1.85L20 4v16a2 2 0 01-1.85 1.995L18 22H6a2 2 0 01-1.995-1.85L4 20V4a2 2 0 011.85-1.995L6 2h12zm0 15.5h-5V20h5v-2.5zM11 4H6v16h5V4zm7 9h-5v2.5h5V13zm-9-2a1 1 0 01.117 1.993L9 13H8a1 1 0 01-.117-1.993L8 11h1zm9-2.5h-5V11h5V8.5zM18 4h-5v2.5h5V4z"/></g></svg>